# xmcd
#
# Track frame offsets:
#	150
#	21807
#	55120
#
# Disc length: 1024 seconds
#
# Revision: 1
# Processed by: cddbd v1.5PL3 Copyright (c) Steve Scherf et al.
# Submitted via: CDex 1.50Beta5
#
DISCID=1b03fe03
DTITLE=Tetsuya Komuro - Speed Tk Re-Mix
DYEAR=1900
DGENRE=Alternative and Punk -> General Alternative
TTITLE0=Speed Tk Re-Mix (Tk Club Mix)
TTITLE1=Speed Tk Re-Mix (2001 Gaball-Mix)
TTITLE2=Speed TK Re-Mix (TK Club MIX Version2.1)
EXTD=
EXTT0=
EXTT1=
EXTT2=
PLAYORDER=
